# xmcd
#
# Track frame offsets:
#	150
#	12167
#	25278
#	36759
#	49750
#	63809
#	74823
#
# Disc length: 1176 seconds
# Revision: 0
# Processed by: cddbd v1.5.2PL0 Copyright (c) Steve Scherf et al.
# Submitted via: dBpowerAMP V12.0
#
DISCID=5a049607
DTITLE=Elizabeth Cook - Gospel Plow
DYEAR=2012
DGENRE=Gospel
TTITLE0=If I Had My Way, I'd Tear This Building Down
TTITLE1=Gospel Plow
TTITLE2=Every Humble Knee Must Bow
TTITLE3=The Other Side of Life
TTITLE4=Hear Jerusalem Calling
TTITLE5=These Men of God
TTITLE6=Jesus
EXTD=
EXTT0=
EXTT1=
EXTT2=
EXTT3=
EXTT4=
EXTT5=
EXTT6=
PLAYORDER=
